<svg id="Layer_1" data-name="Layer 1" xmlns="http://www.w3.org/2000/svg" viewBox="0 0 900 500"><defs><style>.cls-1{fill:#152e53;}.cls-2{fill:#cfae5f;}.cls-3{fill:#eb2429;}.cls-4{fill:none;}</style></defs><path class="cls-1" d="M501.91,259.33,538.17,207H521.58a21.89,21.89,0,0,0-17.93,9.3L479.17,251a9.9,9.9,0,0,0-1.79,5.66v5.08a9.85,9.85,0,0,0,1.75,5.6l27,38.93a18.89,18.89,0,0,0,15.64,8.18h18Z"/><path class="cls-1" d="M472,253.63V207h-24.6V314.49H461a11,11,0,0,0,11-11V264.82l0,0V253.59Z"/><path class="cls-1" d="M568.93,290.84h43V314.5H544.35V206.94h66.84V230.6H568.93v17.83h38.42v23.36H568.93Z"/><path class="cls-1" d="M651.15,290.84h38.41V314.5h-63V206.94h24.59Z"/><path class="cls-1" d="M774.27,314.5l-5.76-16.9H727.13l-5.38,16.9H694.86l36.57-107.56h31.35L799.43,314.5Zm-39.69-39.95h26.07l-13.47-39.49Z"/><path class="cls-2" d="M447.07,336h3v22.45h-3Z"/><path class="cls-2" d="M477.17,336h3v22.45h-2.41l-11.54-16.77v16.77h-3V336h2.3l11.64,16.86Z"/><path class="cls-2" d="M499.21,358.49l-8-22.45h3.21l6.51,18.72L507.38,336h3.24l-8,22.45Z"/><path class="cls-2" d="M524.6,355.66H535v2.83h-13.4V336h13.24v2.82H524.6v6.9h9.46v2.78H524.6Z"/><path class="cls-2" d="M554.23,358.9a9.53,9.53,0,0,1-5.37-1.47,7.78,7.78,0,0,1-3.13-4l2.57-1.48q1.31,4.08,6,4.08a5.67,5.67,0,0,0,3.53-.95,3,3,0,0,0,1.22-2.52,2.71,2.71,0,0,0-1.22-2.41,17.38,17.38,0,0,0-4.07-1.69l-2.14-.74a14.28,14.28,0,0,1-1.86-.82,6,6,0,0,1-1.65-1.15,5.79,5.79,0,0,1-1-1.56,5.24,5.24,0,0,1-.44-2.18,5.72,5.72,0,0,1,2.06-4.63,7.53,7.53,0,0,1,5-1.72,8,8,0,0,1,4.63,1.35,8.39,8.39,0,0,1,3,3.56l-2.5,1.44a5.14,5.14,0,0,0-5.1-3.46,4.57,4.57,0,0,0-3,.9,2.94,2.94,0,0,0-1.12,2.43,2.58,2.58,0,0,0,1.06,2.24,13.62,13.62,0,0,0,3.65,1.61l1.31.46,1.21.43a11.23,11.23,0,0,1,1.2.48c.26.13.61.31,1,.55a4.1,4.1,0,0,1,1,.67l.75.79a3,3,0,0,1,.63.95,8,8,0,0,1,.34,1.1,6.4,6.4,0,0,1,.14,1.34,5.74,5.74,0,0,1-2.15,4.69A8.58,8.58,0,0,1,554.23,358.9Z"/><path class="cls-2" d="M587.44,336v2.82h-6.63v19.63h-2.95V338.86h-6.6V336Z"/><path class="cls-2" d="M597.13,350V347.3h11.71V350Z"/><path class="cls-2" d="M643.66,347.36v1.35a9.66,9.66,0,0,1-3,7.29,11,11,0,0,1-8,2.9,11.41,11.41,0,0,1-8.48-3.38,11.72,11.72,0,0,1,14.12-18.41,10.66,10.66,0,0,1,4,3.93l-2.56,1.51a7.17,7.17,0,0,0-2.9-2.93,8.82,8.82,0,0,0-10.59,13.86,8.67,8.67,0,0,0,6.43,2.51,8.44,8.44,0,0,0,5.45-1.66,6.72,6.72,0,0,0,2.54-4.28h-8.24v-2.69Z"/><path class="cls-2" d="M658.63,355.66h10.42v2.83h-13.4V336h13.24v2.82H658.63v6.9h9.46v2.78h-9.46Z"/><path class="cls-2" d="M688.26,358.9a9.55,9.55,0,0,1-5.37-1.47,7.78,7.78,0,0,1-3.13-4l2.57-1.48q1.3,4.08,6,4.08a5.65,5.65,0,0,0,3.52-.95,3,3,0,0,0,1.22-2.52,2.71,2.71,0,0,0-1.22-2.41,17.38,17.38,0,0,0-4.07-1.69l-2.14-.74a13.67,13.67,0,0,1-1.85-.82,5.74,5.74,0,0,1-1.65-1.15,5.8,5.8,0,0,1-1-1.56,5.24,5.24,0,0,1-.43-2.18,5.71,5.71,0,0,1,2-4.63,7.53,7.53,0,0,1,5-1.72,8,8,0,0,1,4.63,1.35,8.32,8.32,0,0,1,3,3.56l-2.5,1.44a5.13,5.13,0,0,0-5.1-3.46,4.57,4.57,0,0,0-2.95.9,2.94,2.94,0,0,0-1.12,2.43,2.58,2.58,0,0,0,1.06,2.24,13.62,13.62,0,0,0,3.65,1.61l1.31.46,1.21.43a10.41,10.41,0,0,1,1.2.48l1.05.55a4.22,4.22,0,0,1,1,.67c.22.22.47.48.75.79a3,3,0,0,1,.63.95,8,8,0,0,1,.34,1.1,6.4,6.4,0,0,1,.14,1.34,5.71,5.71,0,0,1-2.15,4.69A8.58,8.58,0,0,1,688.26,358.9Z"/><path class="cls-2" d="M721.48,336v2.82h-6.64v19.63h-3V338.86h-6.6V336Z"/><path class="cls-2" d="M732.8,336h3v22.45h-3Z"/><path class="cls-2" d="M767.64,355.51a11.76,11.76,0,1,1,3.38-8.25A11.24,11.24,0,0,1,767.64,355.51Zm-14.43-2a8.81,8.81,0,0,0,12.34,0,9,9,0,0,0,0-12.44,8.81,8.81,0,0,0-12.34,0,9,9,0,0,0,0,12.44Z"/><path class="cls-2" d="M796.93,336h3v22.45h-2.4L786,341.72v16.77h-3V336h2.31l11.64,16.86Z"/><path class="cls-2" d="M277.6,152.12l-.43,0a1.51,1.51,0,0,0-.74.19l-5,2.95c-10.26,6.11-20.87,12.42-31.25,18.72a4.63,4.63,0,0,0-1.79,3.5c-.06,2.88-.05,5.8-.05,8.63,0,3.11,0,6.32-.07,9.47a5.39,5.39,0,0,0,2.69,5q5.61,3.94,11.17,7.95c4.38,3.14,8.91,6.39,13.41,9.52a8.27,8.27,0,0,1,3.9,7.47c0,17,.22,34.28.41,50.4,0,1,.32,2.82,1.39,3.66a29.16,29.16,0,0,0,4.15,2.52l1.91,1,1.12.64V152Z"/><path class="cls-2" d="M231.76,251a6.17,6.17,0,0,1-1.46,4.43l-.12.1-1.68,1.28a11.37,11.37,0,0,0-1.06.73c-2,1.53-4.06,3-6.09,4.54l-.2.14c-2.65,2-5.64,4.16-8.47,6.36l-.2.15-.46.17-8.7,6.39-.8.71L188.34,286.5V242.05c0-4,.11-8.26.38-14.58a5.58,5.58,0,0,1,1.38-3.33l.17-.12,38.83-22.38a2.74,2.74,0,0,1,.54,0l.12,0,1.72-.22.16,2.42c.05.56.08,1.15.08,1.7v18.11C231.72,232.63,231.72,241.89,231.76,251Z"/><path class="cls-2" d="M291.36,166.56c0-5.64-2.66-8.18-6.72-10.27l-1.09-.56v4.72q0,14.2,0,28.42c0,30.74,0,62.53-.15,93.79,0,5,1.88,7.71,6.8,9.49l1,.36v-4.93q0-14.16,0-28.32C291.18,228.88,291.16,197.46,291.36,166.56Z"/><path class="cls-2" d="M303.8,173.1a5.08,5.08,0,0,0-1.37-3.36,26.78,26.78,0,0,0-3.32-2.65c-.56-.41-1.17-.85-1.82-1.35l-1.21-.91V291.57a11.85,11.85,0,0,0,.64,4.9l.35.77.72-.44c1.94-1.16,3.83-2.35,5.7-3.55l.35-.22v-.41Q303.86,232.88,303.8,173.1Z"/><path class="cls-2" d="M262.76,246.93a4,4,0,0,0-1.47-2.75c-5.71-4.23-11.45-8.41-17.56-12.85L237.81,227v1.48c0,1,0,2,0,2.86,0,1.85,0,3.45-.06,5a5.15,5.15,0,0,0,2.54,5.1c4.27,3,8.55,6.12,12.69,9.16l5.82,4.26c.5.36,1,.67,1.71,1.07l1.14.68,1.14.7V256c0-1,0-1.91,0-2.8C262.84,250.92,262.86,249,262.76,246.93Z"/><path class="cls-2" d="M262.76,226.88a4,4,0,0,0-1.47-2.75c-5.71-4.24-11.45-8.42-17.56-12.86L237.81,207v1.48c0,1,0,2,0,2.86,0,1.85,0,3.45-.06,5a5.18,5.18,0,0,0,2.54,5.11c4.27,3,8.55,6.12,12.69,9.16,1.94,1.42,3.87,2.84,5.82,4.25.5.37,1,.68,1.71,1.08l1.14.68,1.14.7V236c0-1,0-1.91,0-2.8C262.84,230.87,262.86,228.9,262.76,226.88Z"/><path class="cls-2" d="M290,300.16Q262.22,280.57,234.51,261c-1.71-1.2-2.9-.8-4.28.24-2.1,1.59-4.22,3.16-6.34,4.72-2.77,2-5.63,4.15-8.39,6.3a5,5,0,0,1-1.25.76l-8,5.9-.79.7h0l-44,32.57,1.73.3a43.72,43.72,0,0,0,7.41.68c1,0,2.07-.05,3.08-.14a12.73,12.73,0,0,0,6.11-2c15.27-11.15,31.93-23.47,50.93-37.64,1.5-1.12,2.27-1.14,3.74-.09,16,11.36,31.63,22.42,46.2,32.68l.38.27.4-.22c3-1.53,5.79-3.08,8.44-4.58l1-.58Z"/><rect class="cls-2" x="215.85" y="296.06" width="14.99" height="15.55"/><rect class="cls-2" x="235.03" y="295.88" width="15.16" height="15.36"/><path class="cls-2" d="M215.8,330.2h6.79l.17-.05q3.78-1.12,7.52-2.32l.84-.27V314.87H215.8Z"/><path class="cls-2" d="M234.91,314.79V326.3l1.6-.55c4.39-1.5,8.74-3.09,12.94-4.73l.77-.3v-5.93Z"/><path class="cls-1" d="M397.18,274c0,3.34-.11,6.66-.34,9.94a139.76,139.76,0,0,1-230.49,96.21q10.93-.82,22.22-2.51l3.21-.51a341.48,341.48,0,0,0,63.39-16.73c32.29-11.88,61-27.73,84.88-45.82a299.64,299.64,0,0,1-30.86,30.73,342.73,342.73,0,0,1-46.5,33.73c-10.22,6.2-20.54,11.76-30.88,16.7A124.22,124.22,0,0,0,381.5,281.55L397,267.75Q397.17,270.87,397.18,274Z"/><path class="cls-2" d="M298,139.45l-.36-.11c-1.79-.54-3.66-1.06-5.73-1.59-3.34-.84-6.72-1.57-10.05-2.16a141,141,0,0,0-17.86-2c-2.13-.11-4.38-.16-6.68-.16a140.42,140.42,0,0,0-140.49,135.4l-.09,2.37,0,0c0,.94,0,1.89,0,2.84A139.75,139.75,0,0,0,125.9,324l.14.38.4.08a153.14,153.14,0,0,0,18,2.78l1.31.12-.55-1.19A122.57,122.57,0,0,1,133.74,274a124.19,124.19,0,0,1,2.78-26.19c.19-.87.39-1.75.6-2.62a123.65,123.65,0,0,1,93.78-92l.09,0a124.85,124.85,0,0,1,37.35-2.34,122.59,122.59,0,0,1,36,8.77l1.61.66Z"/><path class="cls-2" d="M375.17,129.4a22.42,22.42,0,0,0-12-3.17,25.27,25.27,0,0,0-7,1V112.28H343.36v5.11a20.87,20.87,0,0,0-2.17-.24V99.83h7.39V72.73H342.8V53.36h-6.54V73h-5.77V99.83h7.39v17.31a20.75,20.75,0,0,0-2.27.24v-5.1H322.8v14.9a25.35,25.35,0,0,0-16.72,1l-.09,0a22.33,22.33,0,0,0-2,1.08h-.48l3.55,9.38.32.83.66,1.76.05,0v.35h.3l.2.12a16.48,16.48,0,0,0,3,1.4.84.84,0,0,1-.21.11l-.22.1c-.5.24-1,.51-1.48.78l-.52,0,3.17,8.38.12.3,0,.08,0,0,.16.41,0,.1.05.1.09.24v0l0,0v0h0l0,.13.07.18.15.08h.05a22.11,22.11,0,0,0,8.11,2.15l-.72.09c-.26,0-.51.07-.78.11s-.55.08-.79.14a15.49,15.49,0,0,0-2.13.51l-.24.07a17.44,17.44,0,0,0-1.72.59h-.56l2.85,7.44.31.83h.05l.34.95.08.18.17.07a22.15,22.15,0,0,0,4.66,1.25V278.55q6.79-5.37,12.81-11V235.31c2.54,0,5.19,0,7.75,0v24.47a145,145,0,0,0,12.79-15.5v-76a18.57,18.57,0,0,0,5.18-1.85l.13-.06.06-.15.14-.36.15-.41,2.69-7,.14-.37-.36-.16-1-.36c-.31-.1-.61-.19-.91-.3l-1-.27a2.17,2.17,0,0,1-.33-.07l-.54-.12-.18-.05-.5-.09h0l-.54-.09h-.15l-.14,0c-.28-.05-.57-.08-.86-.11a3.51,3.51,0,0,0-.55,0,2.81,2.81,0,0,0-.5,0c-.27,0-.54,0-.83-.05h-.12v-.12A22.69,22.69,0,0,0,365.3,154a7.44,7.44,0,0,0,1-.55h0l.11-.08.12-.28.12-.35,3-8,.12-.33-.28-.18a4.38,4.38,0,0,0-.43-.24c-.12-.08-.27-.15-.42-.23s-.42-.22-.63-.33l-.37-.18c-.19-.07-.37-.16-.55-.24a2,2,0,0,1-.22-.09l-.94-.36a22.71,22.71,0,0,0,3.89-1.09c.39-.13.75-.3,1.13-.46l.24-.14v-.19l.36-1,.3-.78,3.54-9.35ZM342.88,75.6H346V96.67h-3.07ZM336.3,96.67h-3.07V75.6h3.07Zm-26,48.09v0l.17-.09Zm12.51,23.05a23.72,23.72,0,0,1-4.18-1.11l-.24-.68,1-.27.6-.15.6-.14.24,0c.4-.07.8-.15,1.21-.19l.4-.05c.14,0,.25,0,.37,0a0,0,0,0,1,0,0Zm0-12.16a22,22,0,0,1-9.13-2.07s0,0,0,0l-.06-.15-.1-.27.76-.33.25-.11a1,1,0,0,1,.24-.09h0l.07,0,.19-.06h0s0,0,0,0a.42.42,0,0,1,.14-.06h0l.08,0,.27-.09,0,0,.13,0,.12-.05h0c.28-.1.55-.18.83-.26.46-.13,1-.25,1.52-.36a1.7,1.7,0,0,1,.34-.07l.21,0a15.75,15.75,0,0,1,1.64-.24c.38,0,.74-.08,1.19-.11s.8,0,1.22,0Zm0-14.36c-.45,0-1-.06-1.56-.06-.38,0-.74,0-1.12,0-.74,0-1.47.09-2.21.18-.26,0-.51.08-.77.13l-.39.06a23.63,23.63,0,0,0-4,1.06,15.46,15.46,0,0,1-3.71-1.64l-.2-.12-.62-1.62h0v0c.09,0,.18-.09.25-.12h0A3.68,3.68,0,0,1,309,139l.07,0a4.27,4.27,0,0,1,.63-.27s0-.05.07-.05.21-.09.32-.12a0,0,0,0,1,0,0l.38-.14c.56-.21,1.13-.39,1.72-.55l.4-.11s0,0,.05,0c.25-.07.49-.13.75-.18l.42-.09c.27-.06.54-.1.83-.15l.92-.13h.1l.27,0c.36,0,.73-.08,1.1-.1.78,0,1.61,0,2.44,0,.21,0,.42,0,.62,0l.61,0h.08l.77.07,1.26.18Zm20.56,88.45c-1.22.06-2.57.09-4.34.09-1.17,0-2.3,0-3.41-.06V198.44c1.14,0,2.32,0,3.49,0h0c1.42,0,2.84,0,4.24.05Zm0-36.84c-2.89.09-5.33.11-7.75,0v-31h0l.5-.08.6,0a21,21,0,0,1,2.71-.17,25.17,25.17,0,0,1,3.08.2,1.61,1.61,0,0,1,.39,0l.44.08Zm3.58-41.3c-.13,0-.27-.09-.41-.12s-.25-.07-.37-.12h-.08a.1.1,0,0,0-.07,0s0,0,0,0l-.18,0-.46-.12c-.28-.06-.53-.12-.79-.16a2.38,2.38,0,0,0-.37-.06h0l-.42-.08-.39-.06-.3,0c-.35-.06-.72-.11-1-.14l-.87-.07-.41,0h-.81a3.31,3.31,0,0,0-.44,0h0c-.38,0-.76,0-1.13.05l-.18-.17-.17.17h-.15s0,0,0,0h-.13l-.47,0a.55.55,0,0,0-.18,0c-.2,0-.39,0-.59.06a4.79,4.79,0,0,0-.51.07,2.77,2.77,0,0,0-.3,0l-.12,0-.35.06h0l-.33.06a4.51,4.51,0,0,0-.53.09l-.45.11a1.12,1.12,0,0,0-.36.09h0l-.47.12-.35.1-.57-5.16h.06l.78-.25h0l.47-.13.34-.09a6,6,0,0,1,.86-.18l.24-.06.2,0,.3,0s0,0,.07,0a.78.78,0,0,1,.26,0,.1.1,0,0,1,.07,0l.41-.06h.14a4.19,4.19,0,0,1,.7-.09.18.18,0,0,1,.11,0s.12,0,.12,0c.48,0,1.07-.07,1.65-.07.21,0,.43,0,.64,0h.3c.43,0,.86,0,1.28.06l.94.05.82.13.28,0,.29,0a2.14,2.14,0,0,1,.35.06l.48.09a.61.61,0,0,1,.13,0,2.53,2.53,0,0,1,.38.07l.44.09a1.39,1.39,0,0,1,.19.06l.24.05.35.1.33.11.47.14c.28.09.54.18.79.28Zm1.75-15.77,0,0h0Zm.6-5.42-.33,3-.24,2.17,0,.09-.19-.07c-.2-.08-.39-.17-.59-.23l-.29-.11-.51-.18c-.24-.09-.49-.16-.77-.24l-.36-.1-.45-.09,0,0c-.48-.13-.92-.22-1.32-.3l-.35,0a3.7,3.7,0,0,0-.48-.09,18.32,18.32,0,0,0-2.24-.24,23.35,23.35,0,0,0-4.73.12,6.39,6.39,0,0,0-.78.1l-.48.08c-.11,0-.23,0-.35.06l-.65.13-.45.12-.36.08-.87.21-.48.15-.32.1c-.27.11-.56.21-.83.3v0l-.59-5.34a7.31,7.31,0,0,1,.84-.36c.15-.06.33-.12.5-.2l.3-.1a8.16,8.16,0,0,1,.84-.26l.47-.14.35-.09.4-.09.59-.13.27,0a1.38,1.38,0,0,1,.2,0l.31-.06a2.61,2.61,0,0,0,.32-.06c.24,0,.45-.07.68-.09a15.29,15.29,0,0,1,1.59-.16c1-.06,2.05-.05,3,0l.72.06c.42.05.81.09,1.2.15a1.81,1.81,0,0,1,.23,0l.33.06a1.59,1.59,0,0,1,.36.06l.47.08a15.66,15.66,0,0,1,1.65.39.88.88,0,0,1,.29.07l.12,0,.21.06.48.15c.24.1.51.19.8.29a1.36,1.36,0,0,0,.28.11l.5.22a1.74,1.74,0,0,1,.27.14,5.32,5.32,0,0,1,.5.21Zm6.88,34.71c.31,0,.64.07,1,.12l.21,0c.36,0,.71.12,1.05.18s.7.15,1,.23l.15,0c.32.08.62.15.92.24a.06.06,0,0,0,.05,0,18.41,18.41,0,0,1-4.4,1.53v-2.39Zm8.77-11.85a21.92,21.92,0,0,1-8.79,2.11v-4.27h.47c.25,0,.51,0,.75,0a6.76,6.76,0,0,1,.87.09,9.59,9.59,0,0,1,1.3.15c.54.07,1.08.16,1.64.28a.44.44,0,0,0,.19,0c.43.11.85.21,1.24.33v.13H363c.57.18,1,.33,1.46.51l.14,0a.36.36,0,0,0,.15.06,2.53,2.53,0,0,1,.37.18l.09,0,.21.08A4.75,4.75,0,0,1,364.94,153.27Zm5.57-13c-.3.13-.6.27-.93.39a21.47,21.47,0,0,1-5.42,1.28c-.51-.12-1-.23-1.55-.32-.75-.13-1.52-.24-2.29-.32s-1.64-.12-2.48-.12c-.66,0-1.19,0-1.69.06v-4a1.75,1.75,0,0,1,.33-.05l.67-.1c.34-.06.7-.09,1.06-.12.2,0,.39,0,.59,0s.42,0,.63,0c.36,0,.73,0,1.09,0a11.53,11.53,0,0,1,1.16,0c.28,0,.52,0,.73,0h.26l.07,0h.11a.18.18,0,0,1,.1,0,6.72,6.72,0,0,1,1.07.12,20.08,20.08,0,0,1,2.35.43c.42.11.84.21,1.25.35l.15,0,.38.14.78.28a16.35,16.35,0,0,1,2,.89Z"/><path class="cls-2" d="M335.61,128.56h0l-.34.07a1.54,1.54,0,0,0-.3,0l.32-.05Z"/><path class="cls-2" d="M335.61,145.41h0l-.26,0Z"/><path class="cls-2" d="M348.71,135.62h0l.23-2.17Zm0,0h0l.23-2.17Z"/><path class="cls-2" d="M346.15,151.36h0Z"/><path class="cls-2" d="M348.6,135.67l.1,0v-.09Zm0,0,.1,0v-.09Zm0,0,.1,0v-.09Zm-18.38-5.55.59,5.35h0Zm5.39-1.56-.32.07-.32.05a1.54,1.54,0,0,1,.3,0l.34-.07c.22,0,.45-.08.68-.1C336.06,128.49,335.85,128.52,335.61,128.56Zm13,7.11.1,0v-.09Zm-18.38-5.55.59,5.35h0Zm5.39-1.56-.32.07-.32.05a1.54,1.54,0,0,1,.3,0l.34-.07c.22,0,.45-.08.68-.1C336.06,128.49,335.85,128.52,335.61,128.56Zm0,0-.32.07-.32.05a1.54,1.54,0,0,1,.3,0l.34-.07c.22,0,.45-.08.68-.1C336.06,128.49,335.85,128.52,335.61,128.56Zm0,0-.32.07-.32.05a1.54,1.54,0,0,1,.3,0l.34-.07c.22,0,.45-.08.68-.1C336.06,128.49,335.85,128.52,335.61,128.56Zm0,0-.32.07-.32.05a1.54,1.54,0,0,1,.3,0l.34-.07c.22,0,.45-.08.68-.1C336.06,128.49,335.85,128.52,335.61,128.56Zm0,0-.32.07-.32.05a1.54,1.54,0,0,1,.3,0l.34-.07c.22,0,.45-.08.68-.1C336.06,128.49,335.85,128.52,335.61,128.56Zm0,0-.32.07-.32.05a1.54,1.54,0,0,1,.3,0l.34-.07c.22,0,.45-.08.68-.1C336.06,128.49,335.85,128.52,335.61,128.56Zm0,0-.32.07-.32.05a1.54,1.54,0,0,1,.3,0l.34-.07c.22,0,.45-.08.68-.1C336.06,128.49,335.85,128.52,335.61,128.56Zm0,0-.32.07-.32.05a1.54,1.54,0,0,1,.3,0l.34-.07c.22,0,.45-.08.68-.1C336.06,128.49,335.85,128.52,335.61,128.56Zm0,0-.32.07-.32.05a1.54,1.54,0,0,1,.3,0l.34-.07c.22,0,.45-.08.68-.1C336.06,128.49,335.85,128.52,335.61,128.56Zm0,0-.32.07-.32.05a1.54,1.54,0,0,1,.3,0l.34-.07c.22,0,.45-.08.68-.1C336.06,128.49,335.85,128.52,335.61,128.56Zm0,0-.32.07-.32.05a1.54,1.54,0,0,1,.3,0l.34-.07c.22,0,.45-.08.68-.1C336.06,128.49,335.85,128.52,335.61,128.56Zm0,0-.32.07-.32.05a1.54,1.54,0,0,1,.3,0l.34-.07c.22,0,.45-.08.68-.1C336.06,128.49,335.85,128.52,335.61,128.56Zm0,0-.32.07-.32.05a1.54,1.54,0,0,1,.3,0l.34-.07c.22,0,.45-.08.68-.1C336.06,128.49,335.85,128.52,335.61,128.56Zm0,0-.32.07-.32.05a1.54,1.54,0,0,1,.3,0l.34-.07c.22,0,.45-.08.68-.1C336.06,128.49,335.85,128.52,335.61,128.56Zm0,0-.32.07-.32.05a1.54,1.54,0,0,1,.3,0l.34-.07c.22,0,.45-.08.68-.1C336.06,128.49,335.85,128.52,335.61,128.56Zm0,0-.32.07-.32.05a1.54,1.54,0,0,1,.3,0l.34-.07c.22,0,.45-.08.68-.1C336.06,128.49,335.85,128.52,335.61,128.56Zm0,0-.32.07-.32.05a1.54,1.54,0,0,1,.3,0l.34-.07c.22,0,.45-.08.68-.1C336.06,128.49,335.85,128.52,335.61,128.56Zm0,0-.32.07-.32.05a1.54,1.54,0,0,1,.3,0l.34-.07c.22,0,.45-.08.68-.1C336.06,128.49,335.85,128.52,335.61,128.56Zm0,0-.32.07-.32.05a1.54,1.54,0,0,1,.3,0l.34-.07c.22,0,.45-.08.68-.1C336.06,128.49,335.85,128.52,335.61,128.56Zm0,0-.32.07-.32.05a1.54,1.54,0,0,1,.3,0l.34-.07c.22,0,.45-.08.68-.1C336.06,128.49,335.85,128.52,335.61,128.56Zm0,0-.32.07-.32.05a1.54,1.54,0,0,1,.3,0l.34-.07c.22,0,.45-.08.68-.1C336.06,128.49,335.85,128.52,335.61,128.56Zm0,0-.32.07-.32.05a1.54,1.54,0,0,1,.3,0l.34-.07c.22,0,.45-.08.68-.1C336.06,128.49,335.85,128.52,335.61,128.56Zm0,0-.32.07-.32.05a1.54,1.54,0,0,1,.3,0l.34-.07c.22,0,.45-.08.68-.1C336.06,128.49,335.85,128.52,335.61,128.56Zm0,0-.32.07-.32.05a1.54,1.54,0,0,1,.3,0l.34-.07c.22,0,.45-.08.68-.1C336.06,128.49,335.85,128.52,335.61,128.56Zm0,0-.32.07-.32.05a1.54,1.54,0,0,1,.3,0l.34-.07c.22,0,.45-.08.68-.1C336.06,128.49,335.85,128.52,335.61,128.56Zm0,0-.32.07-.32.05a1.54,1.54,0,0,1,.3,0l.34-.07c.22,0,.45-.08.68-.1C336.06,128.49,335.85,128.52,335.61,128.56Zm0,0-.32.07-.32.05a1.54,1.54,0,0,1,.3,0l.34-.07c.22,0,.45-.08.68-.1C336.06,128.49,335.85,128.52,335.61,128.56Zm0,0-.32.07-.32.05a1.54,1.54,0,0,1,.3,0l.34-.07c.22,0,.45-.08.68-.1C336.06,128.49,335.85,128.52,335.61,128.56Zm0,0-.32.07-.32.05a1.54,1.54,0,0,1,.3,0l.34-.07c.22,0,.45-.08.68-.1C336.06,128.49,335.85,128.52,335.61,128.56Zm0,0-.32.07-.32.05a1.54,1.54,0,0,1,.3,0l.34-.07c.22,0,.45-.08.68-.1C336.06,128.49,335.85,128.52,335.61,128.56Zm13.67,1.84-.33,3,.34-3Zm-.6,5.39v0Zm-.08-.12.1,0v-.09Zm-18.38-5.55.59,5.35h0Zm5.39-1.56-.32.07-.32.05a1.54,1.54,0,0,1,.3,0l.34-.07c.22,0,.45-.08.68-.1C336.06,128.49,335.85,128.52,335.61,128.56Zm0,0-.32.07-.32.05a1.54,1.54,0,0,1,.3,0l.34-.07c.22,0,.45-.08.68-.1C336.06,128.49,335.85,128.52,335.61,128.56Zm0,0-.32.07-.32.05a1.54,1.54,0,0,1,.3,0l.34-.07c.22,0,.45-.08.68-.1C336.06,128.49,335.85,128.52,335.61,128.56Zm0,0-.32.07-.32.05a1.54,1.54,0,0,1,.3,0l.34-.07c.22,0,.45-.08.68-.1C336.06,128.49,335.85,128.52,335.61,128.56Zm0,0-.32.07-.32.05a1.54,1.54,0,0,1,.3,0l.34-.07c.22,0,.45-.08.68-.1C336.06,128.49,335.85,128.52,335.61,128.56Zm0,0-.32.07-.32.05a1.54,1.54,0,0,1,.3,0l.34-.07c.22,0,.45-.08.68-.1C336.06,128.49,335.85,128.52,335.61,128.56Zm0,0-.32.07-.32.05a1.54,1.54,0,0,1,.3,0l.34-.07c.22,0,.45-.08.68-.1C336.06,128.49,335.85,128.52,335.61,128.56Zm0,0-.32.07-.32.05a1.54,1.54,0,0,1,.3,0l.34-.07c.22,0,.45-.08.68-.1C336.06,128.49,335.85,128.52,335.61,128.56Zm0,0-.32.07-.32.05a1.54,1.54,0,0,1,.3,0l.34-.07c.22,0,.45-.08.68-.1C336.06,128.49,335.85,128.52,335.61,128.56Zm0,0-.32.07-.32.05a1.54,1.54,0,0,1,.3,0l.34-.07c.22,0,.45-.08.68-.1C336.06,128.49,335.85,128.52,335.61,128.56Zm0,0-.32.07-.32.05a1.54,1.54,0,0,1,.3,0l.34-.07c.22,0,.45-.08.68-.1C336.06,128.49,335.85,128.52,335.61,128.56Zm0,0-.32.07-.32.05a1.54,1.54,0,0,1,.3,0l.34-.07c.22,0,.45-.08.68-.1C336.06,128.49,335.85,128.52,335.61,128.56Zm0,0-.32.07-.32.05a1.54,1.54,0,0,1,.3,0l.34-.07c.22,0,.45-.08.68-.1C336.06,128.49,335.85,128.52,335.61,128.56Zm0,0-.32.07-.32.05a1.54,1.54,0,0,1,.3,0l.34-.07c.22,0,.45-.08.68-.1C336.06,128.49,335.85,128.52,335.61,128.56Zm0,0-.32.07-.32.05a1.54,1.54,0,0,1,.3,0l.34-.07c.22,0,.45-.08.68-.1C336.06,128.49,335.85,128.52,335.61,128.56Zm0,0-.32.07-.32.05a1.54,1.54,0,0,1,.3,0l.34-.07c.22,0,.45-.08.68-.1C336.06,128.49,335.85,128.52,335.61,128.56Zm0,0-.32.07-.32.05a1.54,1.54,0,0,1,.3,0l.34-.07c.22,0,.45-.08.68-.1C336.06,128.49,335.85,128.52,335.61,128.56Zm0,0-.32.07-.32.05a1.54,1.54,0,0,1,.3,0l.34-.07c.22,0,.45-.08.68-.1C336.06,128.49,335.85,128.52,335.61,128.56Zm0,0-.32.07-.32.05a1.54,1.54,0,0,1,.3,0l.34-.07c.22,0,.45-.08.68-.1C336.06,128.49,335.85,128.52,335.61,128.56Zm0,0-.32.07-.32.05a1.54,1.54,0,0,1,.3,0l.34-.07c.22,0,.45-.08.68-.1C336.06,128.49,335.85,128.52,335.61,128.56Zm0,0-.32.07-.32.05a1.54,1.54,0,0,1,.3,0l.34-.07c.22,0,.45-.08.68-.1C336.06,128.49,335.85,128.52,335.61,128.56Zm0,0-.32.07-.32.05a1.54,1.54,0,0,1,.3,0l.34-.07c.22,0,.45-.08.68-.1C336.06,128.49,335.85,128.52,335.61,128.56Zm0,0-.32.07-.32.05a1.54,1.54,0,0,1,.3,0l.34-.07c.22,0,.45-.08.68-.1C336.06,128.49,335.85,128.52,335.61,128.56Zm0,0-.32.07-.32.05a1.54,1.54,0,0,1,.3,0l.34-.07c.22,0,.45-.08.68-.1C336.06,128.49,335.85,128.52,335.61,128.56Zm0,0-.32.07-.32.05a1.54,1.54,0,0,1,.3,0l.34-.07c.22,0,.45-.08.68-.1C336.06,128.49,335.85,128.52,335.61,128.56Zm0,0-.32.07-.32.05a1.54,1.54,0,0,1,.3,0l.34-.07c.22,0,.45-.08.68-.1C336.06,128.49,335.85,128.52,335.61,128.56Zm0,0-.32.07-.32.05a1.54,1.54,0,0,1,.3,0l.34-.07c.22,0,.45-.08.68-.1C336.06,128.49,335.85,128.52,335.61,128.56Zm0,0-.32.07-.32.05a1.54,1.54,0,0,1,.3,0l.34-.07c.22,0,.45-.08.68-.1C336.06,128.49,335.85,128.52,335.61,128.56Zm0,0-.32.07-.32.05a1.54,1.54,0,0,1,.3,0l.34-.07c.22,0,.45-.08.68-.1C336.06,128.49,335.85,128.52,335.61,128.56Zm0,0-.32.07-.32.05a1.54,1.54,0,0,1,.3,0l.34-.07c.22,0,.45-.08.68-.1C336.06,128.49,335.85,128.52,335.61,128.56Zm0,0-.32.07-.32.05a1.54,1.54,0,0,1,.3,0l.34-.07c.22,0,.45-.08.68-.1C336.06,128.49,335.85,128.52,335.61,128.56Zm-5.39,1.56.59,5.35h0Zm18.38,5.55.1,0v-.09Zm-13-7.11-.32.07-.32.05a1.54,1.54,0,0,1,.3,0l.34-.07c.22,0,.45-.08.68-.1C336.06,128.49,335.85,128.52,335.61,128.56Zm-5.39,1.56.59,5.35h0Zm18.38,5.55.1,0v-.09Zm-13-7.11h0c.22,0,.45-.08.68-.1C336.06,128.49,335.85,128.52,335.61,128.56Zm13,7.11.1,0v-.09Zm0,0,.1,0v-.09Z"/><path class="cls-2" d="M362.85,137h.1Z"/><path class="cls-2" d="M362.67,137h-.17a.34.34,0,0,0,.14,0h.11Zm0,0h-.17a.34.34,0,0,0,.14,0h.11Zm0,0h-.17a.34.34,0,0,0,.14,0h.11Zm0,0h-.17a.34.34,0,0,0,.14,0h.11Zm0,0h-.17a.34.34,0,0,0,.14,0h.11Zm0,0h-.17a.34.34,0,0,0,.14,0h.11Zm0,0h-.17a.34.34,0,0,0,.14,0h.11Zm0,0h-.17a.34.34,0,0,0,.14,0h.11Zm0,0h-.17a.34.34,0,0,0,.14,0h.11Zm0,0h-.17a.34.34,0,0,0,.14,0h.11Zm0,0h-.17a.34.34,0,0,0,.14,0h.11Zm0,0h-.17a.34.34,0,0,0,.14,0h.11Zm.28,0c.36,0,.71.08,1.08.13A8.63,8.63,0,0,0,363,137.06Zm-.28,0h-.17a.34.34,0,0,0,.14,0h.11Zm0,0h-.17a.34.34,0,0,0,.14,0h.11Zm.28,0c.36,0,.71.08,1.08.13A8.63,8.63,0,0,0,363,137.06Zm-.28,0h-.17a.34.34,0,0,0,.14,0h.11Zm0,0h-.17a.34.34,0,0,0,.14,0h.11Zm0,0h-.17a.34.34,0,0,0,.14,0h.11Zm0,0h-.17a.34.34,0,0,0,.14,0h.11Zm0,0h-.17a.34.34,0,0,0,.14,0h.11Zm0,0h-.17a.34.34,0,0,0,.14,0h.11Zm0,0h-.17a.34.34,0,0,0,.14,0h.11Zm0,0h-.17a.34.34,0,0,0,.14,0h.11Zm0,0h-.17a.34.34,0,0,0,.14,0h.11Zm0,0h-.17a.34.34,0,0,0,.14,0h.11Zm0,0h-.17a.34.34,0,0,0,.14,0h.11Zm0,0h-.17a.34.34,0,0,0,.14,0h.11Z"/><path class="cls-2" d="M361.81,165.53h0l2.68-7.05Z"/><polygon class="cls-2" points="312.84 153.9 312.84 153.9 312.83 153.86 312.84 153.9"/><polygon class="cls-2" points="312.9 153.99 312.89 154 312.84 153.9 312.84 153.85 312.85 153.85 312.9 153.99"/><path class="cls-3" d="M307.94,138.53h0Z"/><path class="cls-2" d="M307.93,138.53h0Zm0,0h0Zm0,0h0Zm0,0h0Zm.29.77h0l.24-.13Zm-.29-.77h0Zm0,0h0Zm0,0h0Z"/><path class="cls-2" d="M310.46,144.65a1,1,0,0,1-.17.1h0Z"/><polygon class="cls-2" points="312.43 152.85 312.31 152.55 312.32 152.55 312.43 152.85"/><polygon class="cls-2" points="312.68 153.48 312.63 153.38 312.47 152.97 312.64 153.38 312.68 153.48"/><polygon class="cls-2" points="312.84 153.9 312.84 153.91 312.84 153.9 312.83 153.86 312.84 153.9"/><polygon class="cls-2" points="312.9 153.99 312.89 154 312.84 153.9 312.84 153.85 312.85 153.85 312.9 153.99"/><path class="cls-2" d="M314.83,152.58l-.08,0h0Z"/><path class="cls-2" d="M310.46,144.65a1,1,0,0,1-.17.1h0Z"/><path class="cls-3" d="M310.46,144.65a1,1,0,0,1-.17.1h0Z"/><path class="cls-2" d="M314.75,152.61h0l.08,0Zm-2.28.36.16.41h0Zm-.89-9.81h0l-.21.1.23-.09a2.1,2.1,0,0,1,.26-.13C311.76,143.07,311.67,143.12,311.58,143.16Z"/><path class="cls-2" d="M314.83,152.58l-.08,0h0Z"/><polygon class="cls-2" points="312.43 152.85 312.31 152.55 312.32 152.55 312.43 152.85"/><polygon class="cls-2" points="312.68 153.48 312.63 153.38 312.47 152.97 312.64 153.38 312.68 153.48"/><polygon class="cls-2" points="312.84 153.9 312.84 153.91 312.84 153.9 312.83 153.86 312.84 153.9"/><polygon class="cls-2" points="312.9 153.99 312.89 154 312.84 153.9 312.84 153.85 312.85 153.85 312.9 153.99"/><polygon class="cls-2" points="317.9 167.14 317.87 167.16 317.5 166.19 317.54 166.19 317.9 167.14"/><polygon class="cls-2" points="312.43 152.85 312.31 152.55 312.32 152.55 312.43 152.85"/><polygon class="cls-2" points="312.9 153.99 312.89 154 312.84 153.9 312.84 153.85 312.85 153.85 312.9 153.99"/><path class="cls-2" d="M361.81,165.53l-.15.39.16-.39Z"/><polygon class="cls-2" points="348.69 135.79 348.69 135.83 348.68 135.79 348.69 135.79"/><path class="cls-2" d="M362.85,137h0Z"/><path class="cls-2" d="M320.79,165.44c.35-.07.71-.13,1.07-.18l.13,0A11.12,11.12,0,0,0,320.79,165.44Z"/><path class="cls-2" d="M312.85,153.85h0v.05l.05.1h0Z"/><path class="cls-2" d="M311.58,143.16h0a2.1,2.1,0,0,1,.26-.13C311.76,143.07,311.67,143.12,311.58,143.16Z"/><path class="cls-2" d="M335.61,145.41l-.26.05.26,0,.07,0Zm.48-.07-.41.06.55-.08Zm-5.87-15.22.59,5.35h0Zm5.39-1.56-.32.07-.32.05a1.54,1.54,0,0,1,.3,0l.34-.07c.22,0,.45-.08.68-.1C336.06,128.49,335.85,128.52,335.61,128.56Zm-5.39,1.56.59,5.35h0Zm5.39-1.56-.32.07-.32.05a1.54,1.54,0,0,1,.3,0l.34-.07c.22,0,.45-.08.68-.1C336.06,128.49,335.85,128.52,335.61,128.56Zm0,0-.32.07-.32.05a1.54,1.54,0,0,1,.3,0l.34-.07c.22,0,.45-.08.68-.1C336.06,128.49,335.85,128.52,335.61,128.56Zm0,0-.32.07-.32.05a1.54,1.54,0,0,1,.3,0l.34-.07c.22,0,.45-.08.68-.1C336.06,128.49,335.85,128.52,335.61,128.56Zm0,0-.32.07-.32.05a1.54,1.54,0,0,1,.3,0l.34-.07c.22,0,.45-.08.68-.1C336.06,128.49,335.85,128.52,335.61,128.56Zm0,0-.32.07-.32.05a1.54,1.54,0,0,1,.3,0l.34-.07c.22,0,.45-.08.68-.1C336.06,128.49,335.85,128.52,335.61,128.56Zm0,0-.32.07-.32.05a1.54,1.54,0,0,1,.3,0l.34-.07c.22,0,.45-.08.68-.1C336.06,128.49,335.85,128.52,335.61,128.56Zm0,0-.32.07-.32.05a1.54,1.54,0,0,1,.3,0l.34-.07c.22,0,.45-.08.68-.1C336.06,128.49,335.85,128.52,335.61,128.56Zm0,0-.32.07-.32.05a1.54,1.54,0,0,1,.3,0l.34-.07c.22,0,.45-.08.68-.1C336.06,128.49,335.85,128.52,335.61,128.56Zm0,0-.32.07-.32.05a1.54,1.54,0,0,1,.3,0l.34-.07c.22,0,.45-.08.68-.1C336.06,128.49,335.85,128.52,335.61,128.56Zm0,0-.32.07-.32.05a1.54,1.54,0,0,1,.3,0l.34-.07c.22,0,.45-.08.68-.1C336.06,128.49,335.85,128.52,335.61,128.56Zm0,0-.32.07-.32.05a1.54,1.54,0,0,1,.3,0l.34-.07c.22,0,.45-.08.68-.1C336.06,128.49,335.85,128.52,335.61,128.56Zm0,0-.32.07-.32.05a1.54,1.54,0,0,1,.3,0l.34-.07c.22,0,.45-.08.68-.1C336.06,128.49,335.85,128.52,335.61,128.56Zm0,0-.32.07-.32.05a1.54,1.54,0,0,1,.3,0l.34-.07c.22,0,.45-.08.68-.1C336.06,128.49,335.85,128.52,335.61,128.56Zm0,0-.32.07-.32.05a1.54,1.54,0,0,1,.3,0l.34-.07c.22,0,.45-.08.68-.1C336.06,128.49,335.85,128.52,335.61,128.56Zm0,0-.32.07-.32.05a1.54,1.54,0,0,1,.3,0l.34-.07c.22,0,.45-.08.68-.1C336.06,128.49,335.85,128.52,335.61,128.56Zm0,0-.32.07-.32.05a1.54,1.54,0,0,1,.3,0l.34-.07c.22,0,.45-.08.68-.1C336.06,128.49,335.85,128.52,335.61,128.56Zm0,0-.32.07-.32.05a1.54,1.54,0,0,1,.3,0l.34-.07c.22,0,.45-.08.68-.1C336.06,128.49,335.85,128.52,335.61,128.56Zm0,0-.32.07-.32.05a1.54,1.54,0,0,1,.3,0l.34-.07c.22,0,.45-.08.68-.1C336.06,128.49,335.85,128.52,335.61,128.56Zm0,0-.32.07-.32.05a1.54,1.54,0,0,1,.3,0l.34-.07c.22,0,.45-.08.68-.1C336.06,128.49,335.85,128.52,335.61,128.56Zm0,0-.32.07-.32.05a1.54,1.54,0,0,1,.3,0l.34-.07c.22,0,.45-.08.68-.1C336.06,128.49,335.85,128.52,335.61,128.56Zm0,0-.32.07-.32.05a1.54,1.54,0,0,1,.3,0l.34-.07c.22,0,.45-.08.68-.1C336.06,128.49,335.85,128.52,335.61,128.56Zm0,0-.32.07-.32.05a1.54,1.54,0,0,1,.3,0l.34-.07c.22,0,.45-.08.68-.1C336.06,128.49,335.85,128.52,335.61,128.56Zm0,0-.32.07-.32.05a1.54,1.54,0,0,1,.3,0l.34-.07c.22,0,.45-.08.68-.1C336.06,128.49,335.85,128.52,335.61,128.56Zm0,0-.32.07-.32.05a1.54,1.54,0,0,1,.3,0l.34-.07c.22,0,.45-.08.68-.1C336.06,128.49,335.85,128.52,335.61,128.56Zm0,0-.32.07-.32.05a1.54,1.54,0,0,1,.3,0l.34-.07c.22,0,.45-.08.68-.1C336.06,128.49,335.85,128.52,335.61,128.56Zm0,0-.32.07-.32.05a1.54,1.54,0,0,1,.3,0l.34-.07c.22,0,.45-.08.68-.1C336.06,128.49,335.85,128.52,335.61,128.56Zm0,0-.32.07-.32.05a1.54,1.54,0,0,1,.3,0l.34-.07c.22,0,.45-.08.68-.1C336.06,128.49,335.85,128.52,335.61,128.56Zm0,0-.32.07-.32.05a1.54,1.54,0,0,1,.3,0l.34-.07c.22,0,.45-.08.68-.1C336.06,128.49,335.85,128.52,335.61,128.56Zm0,0-.32.07-.32.05a1.54,1.54,0,0,1,.3,0l.34-.07c.22,0,.45-.08.68-.1C336.06,128.49,335.85,128.52,335.61,128.56Zm0,0-.32.07-.32.05a1.54,1.54,0,0,1,.3,0l.34-.07c.22,0,.45-.08.68-.1C336.06,128.49,335.85,128.52,335.61,128.56Zm13.1,7.06h0l.23-2.17Zm.57-5.22-.33,3,.34-3Zm-.6,5.39v0Zm-18.46-5.67.59,5.35h0Zm5.39-1.56-.32.07-.32.05a1.54,1.54,0,0,1,.3,0l.34-.07c.22,0,.45-.08.68-.1C336.06,128.49,335.85,128.52,335.61,128.56Zm0,0-.32.07-.32.05a1.54,1.54,0,0,1,.3,0l.34-.07c.22,0,.45-.08.68-.1C336.06,128.49,335.85,128.52,335.61,128.56Zm0,0-.32.07-.32.05a1.54,1.54,0,0,1,.3,0l.34-.07c.22,0,.45-.08.68-.1C336.06,128.49,335.85,128.52,335.61,128.56Zm0,0-.32.07-.32.05a1.54,1.54,0,0,1,.3,0l.34-.07c.22,0,.45-.08.68-.1C336.06,128.49,335.85,128.52,335.61,128.56Zm0,0-.32.07-.32.05a1.54,1.54,0,0,1,.3,0l.34-.07c.22,0,.45-.08.68-.1C336.06,128.49,335.85,128.52,335.61,128.56Zm0,0-.32.07-.32.05a1.54,1.54,0,0,1,.3,0l.34-.07c.22,0,.45-.08.68-.1C336.06,128.49,335.85,128.52,335.61,128.56Zm0,0-.32.07-.32.05a1.54,1.54,0,0,1,.3,0l.34-.07c.22,0,.45-.08.68-.1C336.06,128.49,335.85,128.52,335.61,128.56Zm0,0-.32.07-.32.05a1.54,1.54,0,0,1,.3,0l.34-.07c.22,0,.45-.08.68-.1C336.06,128.49,335.85,128.52,335.61,128.56Zm0,0-.32.07-.32.05a1.54,1.54,0,0,1,.3,0l.34-.07c.22,0,.45-.08.68-.1C336.06,128.49,335.85,128.52,335.61,128.56Zm0,0-.32.07-.32.05a1.54,1.54,0,0,1,.3,0l.34-.07c.22,0,.45-.08.68-.1C336.06,128.49,335.85,128.52,335.61,128.56Zm0,0-.32.07-.32.05a1.54,1.54,0,0,1,.3,0l.34-.07c.22,0,.45-.08.68-.1C336.06,128.49,335.85,128.52,335.61,128.56Zm0,0-.32.07-.32.05a1.54,1.54,0,0,1,.3,0l.34-.07c.22,0,.45-.08.68-.1C336.06,128.49,335.85,128.52,335.61,128.56Zm0,0-.32.07-.32.05a1.54,1.54,0,0,1,.3,0l.34-.07c.22,0,.45-.08.68-.1C336.06,128.49,335.85,128.52,335.61,128.56Zm0,0-.32.07-.32.05a1.54,1.54,0,0,1,.3,0l.34-.07c.22,0,.45-.08.68-.1C336.06,128.49,335.85,128.52,335.61,128.56Zm0,0-.32.07-.32.05a1.54,1.54,0,0,1,.3,0l.34-.07c.22,0,.45-.08.68-.1C336.06,128.49,335.85,128.52,335.61,128.56Zm0,0-.32.07-.32.05a1.54,1.54,0,0,1,.3,0l.34-.07c.22,0,.45-.08.68-.1C336.06,128.49,335.85,128.52,335.61,128.56Zm0,0-.32.07-.32.05a1.54,1.54,0,0,1,.3,0l.34-.07c.22,0,.45-.08.68-.1C336.06,128.49,335.85,128.52,335.61,128.56Zm0,0-.32.07-.32.05a1.54,1.54,0,0,1,.3,0l.34-.07c.22,0,.45-.08.68-.1C336.06,128.49,335.85,128.52,335.61,128.56Zm0,0-.32.07-.32.05a1.54,1.54,0,0,1,.3,0l.34-.07c.22,0,.45-.08.68-.1C336.06,128.49,335.85,128.52,335.61,128.56Zm0,0-.32.07-.32.05a1.54,1.54,0,0,1,.3,0l.34-.07c.22,0,.45-.08.68-.1C336.06,128.49,335.85,128.52,335.61,128.56Zm0,0-.32.07-.32.05a1.54,1.54,0,0,1,.3,0l.34-.07c.22,0,.45-.08.68-.1C336.06,128.49,335.85,128.52,335.61,128.56Zm0,0-.32.07-.32.05a1.54,1.54,0,0,1,.3,0l.34-.07c.22,0,.45-.08.68-.1C336.06,128.49,335.85,128.52,335.61,128.56Zm0,0-.32.07-.32.05a1.54,1.54,0,0,1,.3,0l.34-.07c.22,0,.45-.08.68-.1C336.06,128.49,335.85,128.52,335.61,128.56Zm0,0-.32.07-.32.05a1.54,1.54,0,0,1,.3,0l.34-.07c.22,0,.45-.08.68-.1C336.06,128.49,335.85,128.52,335.61,128.56Zm0,0-.32.07-.32.05a1.54,1.54,0,0,1,.3,0l.34-.07c.22,0,.45-.08.68-.1C336.06,128.49,335.85,128.52,335.61,128.56Zm0,0-.32.07-.32.05a1.54,1.54,0,0,1,.3,0l.34-.07c.22,0,.45-.08.68-.1C336.06,128.49,335.85,128.52,335.61,128.56Zm0,0-.32.07-.32.05a1.54,1.54,0,0,1,.3,0l.34-.07c.22,0,.45-.08.68-.1C336.06,128.49,335.85,128.52,335.61,128.56Zm0,0-.32.07-.32.05a1.54,1.54,0,0,1,.3,0l.34-.07c.22,0,.45-.08.68-.1C336.06,128.49,335.85,128.52,335.61,128.56Zm0,0-.32.07-.32.05a1.54,1.54,0,0,1,.3,0l.34-.07c.22,0,.45-.08.68-.1C336.06,128.49,335.85,128.52,335.61,128.56Zm0,0-.32.07-.32.05a1.54,1.54,0,0,1,.3,0l.34-.07c.22,0,.45-.08.68-.1C336.06,128.49,335.85,128.52,335.61,128.56Zm0,0-.32.07-.32.05a1.54,1.54,0,0,1,.3,0l.34-.07c.22,0,.45-.08.68-.1C336.06,128.49,335.85,128.52,335.61,128.56Zm-5.39,1.56.59,5.35h0Zm5.39-1.56-.32.07-.32.05a1.54,1.54,0,0,1,.3,0l.34-.07c.22,0,.45-.08.68-.1C336.06,128.49,335.85,128.52,335.61,128.56Zm-5.39,1.56.59,5.35h0Zm5.39-1.56h0c.22,0,.45-.08.68-.1C336.06,128.49,335.85,128.52,335.61,128.56Z"/><path class="cls-2" d="M348.68,135.79v0Z"/><path class="cls-2" d="M346.15,151.36h0Z"/><path class="cls-2" d="M335.68,145.4l-.07,0-.26,0,.26-.05Z"/><path class="cls-2" d="M342,150.62a7.58,7.58,0,0,1,1,.12A6.66,6.66,0,0,0,342,150.62Zm4.11.74h0Zm-8.21-.84h0Zm-2.31-5.11h0l.07,0Zm0,0-.26.05.26,0,.07,0Z"/><path class="cls-2" d="M335.61,171.73v.84a26.28,26.28,0,0,0,4.1.33,25.22,25.22,0,0,0,3.65-.27v-.82A25.42,25.42,0,0,1,335.61,171.73Z"/><path class="cls-2" d="M337.92,150.52h0Zm0,0h0Zm0,0h0Zm0,0h0Z"/><path class="cls-2" d="M373.17,265.16c-7.32,11.87-17.32,23.51-29.56,34.51C326,315.51,303.72,330,278,342a336.48,336.48,0,0,1-31.47,12.76,284.23,284.23,0,0,1-53,14A88.32,88.32,0,0,1,180.29,370c-33.26.25-59.75-6.55-74.14-20.17A39.83,39.83,0,0,1,99.74,342l-.53-.9a34.68,34.68,0,0,1-2.57-5.4c-5.35-14.29-1.08-31.14,10.79-48.6a59.24,59.24,0,0,0-4.72,15.21A38.38,38.38,0,0,0,104.44,322a36.83,36.83,0,0,0,8.12,12.69h0a24.64,24.64,0,0,0,8.94,6,115.23,115.23,0,0,0,57.87,6.54l.27,0c1.29-.18,2.55-.38,3.74-.6l.54-.1a351,351,0,0,0,36.2-8.19c75.38-21.24,133.55-64.07,153.81-108a96.84,96.84,0,0,0,3.74-9.41c.29-.87.56-1.73.82-2.59.63-2.1,1.16-4.19,1.61-6.26a68,68,0,0,0,1.52-17.53,61.45,61.45,0,0,1,4.88,15.94C389.39,228.18,384.44,246.93,373.17,265.16Z"/><path class="cls-2" d="M183.38,346.54c-1.19.22-2.45.42-3.74.6Z"/><path class="cls-4" d="M117.27,338.92l-.49-.21"/><path class="cls-4" d="M189,345.41c-1.56.36-3.26.71-5.08,1"/></svg>